<?xml version="1.0" encoding="UTF-8" standalone="no"?>
<!DOCTYPE svg PUBLIC "-//W3C//DTD SVG 1.1//EN" "http://www.w3.org/Graphics/SVG/1.1/DTD/svg11.dtd">
<svg width="100%" height="100%" viewBox="0 0 457 220" version="1.1" xmlns="http://www.w3.org/2000/svg" xmlns:xlink="http://www.w3.org/1999/xlink" xml:space="preserve" xmlns:serif="http://www.serif.com/" style="fill-rule:evenodd;clip-rule:evenodd;stroke-linejoin:round;stroke-miterlimit:2;">
    <path d="M10.963,72.315C3.546,88.87 0.103,105.426 0.103,120.657C10.963,110.194 20.632,96.287 27.519,79.732C34.936,63.176 38.379,46.621 38.379,31.389C28.049,41.853 17.983,55.759 10.963,72.315Z" style="fill:white;fill-rule:nonzero;"/>
    <path d="M26.724,78.937C16.658,101.585 11.89,123.836 11.493,143.835C25.93,129.928 38.909,111.121 48.975,88.87C58.511,66.62 63.411,43.972 63.809,23.972C49.372,37.879 36.26,56.686 26.724,78.937Z" style="fill:white;fill-rule:nonzero;"/>
    <path d="M97.715,13.907C78.113,32.714 60.233,58.408 47.121,88.473C34.009,118.538 27.519,149 27.122,176.549C46.723,157.742 64.603,132.047 77.715,101.982C90.695,71.917 97.715,40.925 98.112,13.907L97.715,13.907Z" style="fill:white;fill-rule:nonzero;"/>
    <path d="M143.54,0.397C117.449,25.694 93.476,60.13 75.596,101.055C58.114,141.186 49.505,182.509 48.975,219.196C75.596,193.899 99.569,159.463 116.919,118.538C134.799,77.613 143.54,36.555 143.938,0L143.54,0.397Z" style="fill:white;fill-rule:nonzero;"/>
    <path d="M163.01,86.486C163.01,76.156 172.546,70.593 185.923,70.593C206.054,70.725 212.014,81.189 213.074,92.844L234.795,92.844C234.265,69.004 216.12,52.713 186.717,52.713C161.685,52.713 141.554,67.547 141.554,89.135C141.554,137.478 216.385,114.035 216.385,146.219C216.385,158.934 203.803,165.291 190.426,165.291C172.281,165.291 159.434,156.55 158.507,138.67L137.051,138.67C137.051,171.516 163.672,182.641 188.307,182.641C217.18,182.641 238.106,169.132 238.106,144.497C238.106,94.698 163.01,116.816 163.01,86.486Z" style="fill:white;fill-rule:nonzero;"/>
    <path d="M326.049,112.975C335.85,108.737 343.399,102.115 343.399,86.089C343.399,65.56 329.758,55.627 307.242,55.627L246.45,55.627L246.45,179.727L306.977,179.727C330.95,179.727 349.227,168.072 349.227,145.292C349.227,129.398 343.664,118.67 326.049,112.975ZM267.906,73.109L303.269,73.109C317.043,73.109 322.208,80.924 322.208,90.46C322.208,101.32 314.924,107.81 304.461,107.81L267.906,107.81L267.906,73.109ZM306.58,162.51L267.906,162.51L268.038,123.438L306.05,123.438C321.281,123.438 327.771,131.782 327.771,143.04C327.771,155.358 317.838,162.51 306.58,162.51Z" style="fill:white;fill-rule:nonzero;"/>
    <path d="M381.014,86.486C381.014,76.156 390.55,70.593 403.927,70.593C423.926,70.725 430.018,81.189 431.078,92.844L452.799,92.844C452.269,69.004 434.124,52.713 404.721,52.713C379.689,52.713 359.558,67.547 359.558,89.135C359.558,137.478 434.389,114.035 434.389,146.219C434.389,158.934 421.807,165.291 408.43,165.291C390.285,165.291 377.438,156.55 376.511,138.67L355.055,138.67C355.055,171.516 381.676,182.641 406.311,182.641C435.184,182.641 456.11,169.132 456.11,144.497C456.11,94.698 381.014,116.816 381.014,86.486Z" style="fill:white;fill-rule:nonzero;"/>
</svg>
