<?xml version="1.0" encoding="UTF-8" standalone="no"?>
<!DOCTYPE svg PUBLIC "-//W3C//DTD SVG 1.1//EN" "http://www.w3.org/Graphics/SVG/1.1/DTD/svg11.dtd">
<svg width="100%" height="100%" viewBox="0 0 1982 603" version="1.1" xmlns="http://www.w3.org/2000/svg" xmlns:xlink="http://www.w3.org/1999/xlink" xml:space="preserve" xmlns:serif="http://www.serif.com/" style="fill-rule:evenodd;clip-rule:evenodd;stroke-linejoin:round;stroke-miterlimit:2;">
    <g>
        <path d="M152,39.4C197.7,13.5 250.1,-0.2 302.6,0C353.3,0.4 403.9,13.5 448.1,38.3C451.1,39.5 451.6,43.1 452.7,45.8C462.2,73.3 464.1,103.4 458.1,131.8C452.6,157.9 440.4,182.7 422.9,202.9C395.4,235.4 354.3,256.1 311.7,258.6C302.4,259.7 293,258.8 283.7,258.1C253.2,254.9 223.9,242.6 200.1,223.2C175.7,203.6 157.4,176.6 148,146.7C137.1,111.9 138.3,73.2 152,39.4M288.2,23.8C252.7,27.9 220.1,50.5 203.9,82.2C192.9,103.1 189,127.5 193.1,150.8C197.5,177.2 212,201.8 233.1,218.4C251.9,233.4 275.7,242 299.7,242.2C323.7,242.6 347.8,234.7 366.9,220.1C386.8,205.3 401.1,183.5 407.3,159.6C412,140.4 411.8,119.9 405.9,101C397.3,72.2 376.1,47.5 349.1,34.3C330.4,24.9 309,21.5 288.2,23.8Z" style="fill:white;fill-rule:nonzero;"/>
        <path d="M1388.7,81.8C1405.3,56.4 1421.9,30.9 1438.6,5.6C1474.4,5.6 1510.2,5.4 1546,5.7C1544.4,8.5 1541.6,10.3 1539.2,12.4C1511.1,36.6 1482.9,60.8 1454.9,85C1453.6,86.1 1452.3,87.1 1451,88.1C1429.2,87.9 1407.3,88.2 1385.5,88C1386.1,85.8 1387.3,83.7 1388.7,81.8Z" style="fill:white;fill-rule:nonzero;"/>
        <path d="M44,144.6C57.2,122.4 73.7,102.3 92.1,84.4C92.9,88.2 93.3,92.1 93.9,96C100.1,133.2 116.3,168.8 140.8,197.5C159,219.1 181.6,237 206.9,249.6C249.3,271.1 299,277.4 345.5,267.3C397,256.4 443.8,225.2 473.8,181.9C494,153.3 506.3,119.4 510.4,84.6C525.1,98.6 538.1,114.2 549.6,130.8C552.6,135.4 555.9,139.8 558.3,144.7C553.9,152.8 548.4,160.3 543,167.8C507.2,216.2 456.5,253.4 399.6,272.9C393.3,275.1 387.1,277.5 380.7,279.4C418.7,271.9 456,260.6 491,243.9C523,229 552.9,209.9 580.4,187.9C588.6,208.1 594.6,229.3 598.2,250.8C598.5,252.8 598.6,254.9 598.7,257C554.7,271.4 509.6,282.7 463.9,290.5C437.2,295.3 410.1,298.2 383.2,301.2C456.2,301.5 529.3,301.3 602.3,301.3C602.4,333.3 597.1,365.3 587.2,395.8C574.1,388.5 561.2,380.6 547.7,374C509.4,354.6 468.6,339.8 426.8,330C417,327.9 407.3,325.2 397.3,324.6C413.2,330.6 429.1,336.9 444,345.1C491,370.2 531.2,407.9 559,453.4C560.3,454.9 559.1,456.6 558.3,458C545.1,479 529.8,499 511.7,516.1C507.5,477 492.5,439.2 468.2,408.2C444.6,377.9 412.6,354.2 376.6,340.7C330.7,323.2 278.6,322.8 232.3,339.2C196,351.9 163.3,374.9 139.1,404.9C112.9,437.1 96.9,477.3 93.2,518.6C76.6,502.6 61.7,484.8 49.2,465.5C47.7,462.5 44.1,459.7 44.5,456.3C74.1,406.3 118.9,365.5 171.1,340.1C184.6,333.3 198.9,328.2 213.1,322.9C179.8,328.8 146.7,337 114.9,348.7C80.4,361.3 47.2,377.5 15.8,396.6C5.3,366.1 0.1,333.8 0,301.5C73.7,301.4 147.4,301.6 221.1,301.4C201.9,299.1 182.6,297.4 163.5,294.4C109.3,286.6 55.8,273.7 3.7,256.8C3.7,253.4 4.2,250.1 4.9,246.8C8.5,227.3 13.9,208.1 21.3,189.7C23.2,190.9 25,192.1 26.8,193.5C84.8,238.7 154.3,268.8 226.8,280.7C201.7,273.2 177,264.2 154.2,251.1C109.1,226 70.9,188.8 44,144.6Z" style="fill:white;fill-rule:nonzero;"/>
        <path d="M894.1,192.8C894.2,167 893.9,141.2 894.2,115.5C943.7,115.6 993.1,115.5 1042.6,115.5C1073.5,116.1 1105.3,120.1 1133.2,134.2C1152.7,143.9 1169.6,159.5 1179.1,179.2C1189.2,199.3 1191.6,222.6 1189.6,244.8C1187.8,264.2 1180.8,283.3 1168.3,298.4C1155.2,314.8 1136.7,325.9 1117.5,333.7C1148.7,383.4 1180.8,432.6 1212,482.3C1176.2,482.5 1140.3,482.3 1104.5,482.4C1102.7,482.8 1102,481.2 1101.3,480C1076.5,436.4 1051.5,392.8 1026.7,349.1C1013.4,349 1000.1,349.1 986.8,349.1C986.5,385 986.8,420.9 986.7,456.8C986.5,465.3 987.1,473.9 986.3,482.4C955.5,482.3 924.8,482.4 894,482.3C894,385.9 894.1,289.4 894.1,192.8M986.8,189.1C986.4,205.7 986.9,222.2 986.7,238.8C987.2,252.2 986.1,265.7 987,279.2C998.2,279.1 1009.5,279.2 1020.7,279.2C1034.8,279.1 1049.1,280 1062.9,276.6C1072.1,274.4 1081.2,269.7 1086.9,261.9C1093.4,253.4 1095.2,242.3 1095.2,231.9C1095,220.6 1091.5,208.6 1082.7,201C1072.3,191.9 1057.8,189.4 1044.4,189.3C1025.1,189 1006,189.2 986.8,189.1Z" style="fill:white;fill-rule:nonzero;"/>
        <path d="M1265.1,337.8C1265.2,263.7 1265,189.6 1265.2,115.5C1295,115.6 1324.8,115.6 1354.6,115.5C1355.9,115.3 1358.4,115.6 1357.9,117.6L1357.9,328.7C1357.8,346.5 1357.2,364.9 1363.6,381.9C1367.1,391.4 1373.2,400.2 1381.8,405.8C1397.8,416.1 1418,416.9 1436.4,414.7C1448.3,413.1 1460.1,408.4 1468.6,399.8C1478.8,389.4 1483.2,374.8 1485,360.7C1486.5,348.5 1486,336.1 1486.1,323.8C1486.2,254.4 1485.9,184.9 1486.2,115.5C1516.8,115.6 1547.4,115.5 1578,115.5C1578.1,187.3 1578,259 1578,330.8C1577.9,341 1578.3,351.3 1577.2,361.5C1574.6,394.6 1562.3,428 1538.1,451.4C1523.9,465.5 1506,475.7 1487.1,482.1C1466,489.2 1443.6,491.8 1421.4,492C1386.3,491.8 1349.7,485.4 1320.4,464.9C1304.4,454 1291.4,439 1282.5,421.9C1269,396.2 1264.6,366.6 1265.1,337.8Z" style="fill:white;fill-rule:nonzero;"/>
        <path d="M1648.5,115.6C1681,115.5 1713.5,115.7 1746,115.5C1769.7,213 1792.8,310.7 1816.5,408.2C1829.3,353.4 1842.1,298.6 1854.8,243.8C1864.9,201 1874.5,158.2 1884.9,115.4C1917.1,115.6 1949.3,115.4 1981.5,115.5L1981.5,116C1945.4,238.1 1909.6,360.4 1873.4,482.5C1834.9,482.4 1796.3,482.5 1757.8,482.5C1726.5,377.7 1695.2,273 1663.9,168.2C1658.9,150.6 1653.2,133.3 1648.5,115.6Z" style="fill:white;fill-rule:nonzero;"/>
        <path d="M287.1,343.6C315,341.4 343.5,345.9 368.8,358C399.4,372.2 425.3,396.4 441.6,425.9C464.6,466.9 468,518.3 450.6,561.9C450.2,562.7 449.6,563.3 448.8,563.7C390.5,596.7 320.9,609.2 254.8,598.6C220.9,593.4 187.8,582.2 157.6,565.8C155.5,564.4 152.4,563.6 151.5,561C138.5,527.5 137.4,489.6 148.1,455.3C156.5,428.4 172.2,403.9 193,385C218.6,361.4 252.3,346.5 287.1,343.6M297.7,360C264.4,360.6 232.2,378 212.7,404.9C197.4,425.7 189.8,452.1 191.9,477.9C194.4,514.3 216.6,548.5 248.7,565.6C278.6,582.3 316.4,583.5 347.3,568.8C366.2,559.9 382.5,545.6 393.6,528C412.7,498.4 415.8,459.2 401.8,426.8C393.5,407 379.1,390 361.3,378.2C342.8,365.6 320.2,359.1 297.7,360Z" style="fill:white;fill-rule:nonzero;"/>
    </g>
</svg>
